# xmcd
#
# Track frame offsets:
#	150
#	18298
#	37859
#	57002
#	71451
#	93261
#	107458
#	126910
#	148445
#	162251
#	182998
#
# Disc length: 2651 seconds
#
# Revision: 1
# Processed by: cddbd v1.5.2PL0 Copyright (c) Steve Scherf et al.
# Submitted via: audiograbber 1.83.01
#
DISCID=8f0a590b
DTITLE=Sonlight - Is Your House In Order
DYEAR=2014
DGENRE=Christian
TTITLE0=Just A Closer Walk With Thee
TTITLE1=Well Done
TTITLE2=Guiding Light
TTITLE3=Love You Lord
TTITLE4=Blessed Hope
TTITLE5=Is Your House In Order
TTITLE6=It Had To Be God
TTITLE7=How Great Thou  Art
TTITLE8=When You Meet Up With Jesus
TTITLE9=Let This Be The Time
TTITLE10=Now And Forever
EXTD=
EXTT0=
EXTT1=
EXTT2=
EXTT3=
EXTT4=
EXTT5=
EXTT6=
EXTT7=
EXTT8=
EXTT9=
EXTT10=
PLAYORDER=
